<?xml version="1.0" encoding="UTF-8" standalone="no"?>
<svg
   xmlns:dc="http://purl.org/dc/elements/1.1/"
   xmlns:cc="http://creativecommons.org/ns#"
   xmlns:rdf="http://www.w3.org/1999/02/22-rdf-syntax-ns#"
   xmlns:svg="http://www.w3.org/2000/svg"
   xmlns="http://www.w3.org/2000/svg"
   xmlns:sodipodi="http://sodipodi.sourceforge.net/DTD/sodipodi-0.dtd"
   xmlns:inkscape="http://www.inkscape.org/namespaces/inkscape"
   version="1.1"
   id="svg2"
   xml:space="preserve"
   width="320"
   height="150"
   viewBox="0 0 320 150"
   sodipodi:docname="logo.svg"
   inkscape:version="0.92.2 (5c3e80d, 2017-08-06)"><metadata
     id="metadata8"><rdf:RDF><cc:Work
         rdf:about=""><dc:format>image/svg+xml</dc:format><dc:type
           rdf:resource="http://purl.org/dc/dcmitype/StillImage" /><dc:title></dc:title></cc:Work></rdf:RDF></metadata><defs
     id="defs6" /><sodipodi:namedview
     pagecolor="#ffffff"
     bordercolor="#666666"
     borderopacity="1"
     objecttolerance="10"
     gridtolerance="10"
     guidetolerance="10"
     inkscape:pageopacity="0"
     inkscape:pageshadow="2"
     inkscape:window-width="1837"
     inkscape:window-height="965"
     id="namedview4"
     showgrid="false"
     inkscape:zoom="1.0872741"
     inkscape:cx="220.09481"
     inkscape:cy="63.861443"
     inkscape:window-x="-1"
     inkscape:window-y="3"
     inkscape:window-maximized="0"
     inkscape:current-layer="g10" /><g
     id="g10"
     inkscape:groupmode="layer"
     inkscape:label="ink_ext_XXXXXX"
     transform="matrix(1.3333333,0,0,-1.3333333,0,150)"><g
       id="g3822"
       transform="matrix(0.66666668,0,0,0.66666668,20.711804,11.250001)"><path
         d="m 10.696441,33.437414 c 0,-2.50408 -0.581857,-6.568403 3.056164,-7.627344 V 25.64323 H 0 v 0.16684 c 3.7109376,1.001649 3.2742015,5.123264 3.2742015,7.627344 v 20.990712 c 0,2.560764 0.4367361,6.625695 -3.2742015,7.684289 v 0.16684 h 23.284549 c 1.236979,0 2.473611,-0.111545 3.419705,0.278038 h 0.218056 v -6.458854 h -0.218056 c -2.255642,1.94974 -5.238889,2.171181 -8.586632,2.171181 -2.545833,0 -5.093056,-0.0553 -7.421181,-0.389671 V 47.525001 h 8.731771 c 1.091146,0 2.255556,0 3.128993,0.334375 h 0.217362 v -5.903472 h -0.217362 c -1.164409,1.671007 -4.221267,1.558767 -6.476475,1.558767 H 10.696441 V 33.437414"
         style="fill:#1b458f;fill-opacity:1;fill-rule:nonzero;stroke:none;stroke-width:0.08680556"
         id="path14"
         inkscape:connector-curvature="0" /><path
         d="m 44.528213,62.279255 c 9.750347,0 15.061806,-3.897743 15.061806,-8.965018 0,-4.899132 -5.602691,-8.740625 -11.569271,-9.799566 L 58.498786,33.437414 c 3.055816,-2.894097 7.640625,-5.789844 11.78724,-7.794184 h -6.693837 c -3.856076,0 -6.257813,0.723958 -8.440452,2.783854 l -8.877257,8.407292 -6.693837,7.851476 c 5.821007,0.667361 12.587761,2.727257 12.587761,7.960677 0,4.009722 -4.511458,6.347309 -9.386458,6.180816 -1.673438,-0.05625 -3.274219,-0.22309 -4.94757,-0.445833 V 33.437414 c 0,-2.560764 -0.437153,-6.625695 3.274132,-7.627344 V 25.64323 H 27.210157 v 0.16684 c 3.710938,1.001649 3.201997,5.123264 3.201997,7.627344 v 20.990712 c 0,2.560764 0.508941,6.625695 -3.201997,7.684289 v 0.16684 h 17.318056"
         style="fill:#1b458f;fill-opacity:1;fill-rule:nonzero;stroke:none;stroke-width:0.08680556"
         id="path16"
         inkscape:connector-curvature="0" /><path
         d="M 85.197919,57.546703 77.994446,43.514671 H 92.329863 Z M 76.102693,39.39514 72.319533,31.544358 C 70.790627,28.427084 70.281686,26.811719 73.774221,25.81007 V 25.64323 H 60.385852 v 0.16684 c 4.219879,1.61441 5.457205,4.733247 7.058334,7.905035 L 79.595314,56.93429 c 1.018924,2.004948 2.40165,4.342274 -1.090885,5.178125 v 0.16684 H 90.00087 l 15.13542,-28.56415 c 1.67274,-3.171788 2.98264,-6.290625 7.13107,-7.905035 V 25.64323 H 97.350697 v 0.16684 c 3.564233,1.225434 2.981773,1.8375 1.017361,5.734288 l -3.92882,7.850782 H 76.102693"
         style="fill:#1b458f;fill-opacity:1;fill-rule:nonzero;stroke:none;stroke-width:0.08680556"
         id="path18"
         inkscape:connector-curvature="0" /><path
         d="m 120.26476,32.88099 c 0,-3.117882 -0.0729,-5.344618 3.78385,-7.07092 v -0.16684 h -12.87847 v 0.16684 c 3.8559,1.726302 3.8559,3.953038 3.8559,7.07092 v 22.214758 c 0,3.118576 0,5.344965 -3.78385,7.016667 v 0.16684 h 10.62326 v -0.0566 c 0.29167,-0.668056 0.58334,-0.946094 1.09202,-1.390625 l 1.0191,-1.113889 26.63107,-25.72257 v 21.100174 c 0,3.118576 0.0729,5.344965 -3.78472,7.016667 v 0.16684 h 12.80903 v -0.16684 c -3.78472,-1.671702 -3.78472,-3.898091 -3.78472,-7.016667 v -31.23472 c -5.16667,1.337674 -7.42101,3.174479 -10.62414,6.347309 L 120.26476,54.428126 V 32.88099"
         style="fill:#1b458f;fill-opacity:1;fill-rule:nonzero;stroke:none;stroke-width:0.08680556"
         id="path20"
         inkscape:connector-curvature="0" /><path
         d="m 181.45487,54.373526 c 2.40017,2.615364 6.76562,6.067187 1.89149,7.738889 v 0.16684 h 13.09722 v -0.0566 L 179.70747,45.797744 194.40625,31.04349 c 2.25435,-2.282031 5.01997,-3.842187 8.73004,-5.23342 v -0.16684 h -6.83941 c -3.56424,0 -6.91146,1.057292 -8.22049,2.393923 l -16.15538,16.648699 z m -17.90105,0.11085 c 0,2.504514 0.43664,6.569445 -3.27517,7.628039 v 0.16684 H 174.25 v -0.16684 c -3.7118,-1.002344 -3.27517,-5.123525 -3.27517,-7.628039 V 33.494098 c 0,-2.560764 -0.43663,-6.625087 3.27517,-7.684028 v -0.16684 h -13.97135 v 0.16684 c 3.71181,1.058941 3.27517,5.177778 3.27517,7.684028 v 20.990278"
         style="fill:#1b458f;fill-opacity:1;fill-rule:nonzero;stroke:none;stroke-width:0.08680556"
         id="path22"
         inkscape:connector-curvature="0" /><path
         d="m 221.25001,29.651216 c 4.94878,-0.221441 9.24045,1.058941 12.87934,3.396615 h 0.21788 l -3.78299,-7.404601 h -29.90625 v 0.16684 c 3.71007,1.001649 3.27344,5.123264 3.27344,7.627344 v 20.990712 c 0,2.560764 0.43663,6.625695 -3.27344,7.684289 v 0.16684 h 13.89757 v -0.16684 c -3.71094,-1.058594 -3.20139,-5.178125 -3.20139,-7.684289 V 30.152084 l 9.89584,-0.500868"
         style="fill:#1b458f;fill-opacity:1;fill-rule:nonzero;stroke:none;stroke-width:0.08680556"
         id="path24"
         inkscape:connector-curvature="0" /><path
         d="m 237.61719,54.428126 c 0,2.560764 0.50955,6.625695 -3.20225,7.684289 v 0.16684 h 13.82639 v -0.16684 c -3.63803,-1.058594 -3.20139,-5.178125 -3.20139,-7.684289 V 33.437414 c 0,-2.50408 -0.43664,-6.568403 3.20139,-7.627344 v -0.16684 h -13.82639 v 0.16684 c 3.63889,1.001649 3.20225,5.123264 3.20225,7.627344 v 20.990712"
         style="fill:#1b458f;fill-opacity:1;fill-rule:nonzero;stroke:none;stroke-width:0.08680556"
         id="path26"
         inkscape:connector-curvature="0" /><path
         d="m 258.50001,32.88099 c 0,-3.117882 -0.0738,-5.344618 3.78298,-7.07092 v -0.16684 h -12.87847 v 0.16684 c 3.85503,1.726302 3.85503,3.953038 3.85503,7.07092 v 22.214758 c 0,3.118576 0,5.344965 -3.78298,7.016667 v 0.16684 h 10.62413 v -0.0566 c 0.28993,-0.668056 0.58073,-0.946094 1.09028,-1.390625 l 1.01996,-1.113889 26.63108,-25.72257 v 21.100174 c 0,3.118576 0.0738,5.344965 -3.78385,7.016667 v 0.16684 h 12.80642 v -0.16684 C 294.0816,60.440713 294.0816,58.214324 294.0816,55.095748 V 23.861025 c -5.16579,1.337674 -7.42187,3.174479 -10.625,6.347309 L 258.50001,54.428126 V 32.88099"
         style="fill:#1b458f;fill-opacity:1;fill-rule:nonzero;stroke:none;stroke-width:0.08680556"
         id="path28"
         inkscape:connector-curvature="0" /><path
         d="m 121.49653,93.441843 -0.34375,-3.01823 -19.42969,3.655382 0.0495,0.467014 19.72396,-1.104166"
         style="fill:#edcb04;fill-opacity:1;fill-rule:nonzero;stroke:none;stroke-width:0.08680556"
         id="path30"
         inkscape:connector-curvature="0" /><path
         d="m 129.11198,109.04514 c -0.58767,-0.80989 -1.96094,-2.3559 -1.96094,-2.3559 l -14.89149,12.95486 0.29427,0.34201 16.55816,-10.94097"
         style="fill:#edcb04;fill-opacity:1;fill-rule:nonzero;stroke:none;stroke-width:0.08680556"
         id="path32"
         inkscape:connector-curvature="0" /><path
         d="m 113.81077,103.65799 10.07986,-2.54167 -1.22656,-2.771699 -9.19966,4.833329 0.34636,0.48004"
         style="fill:#edcb04;fill-opacity:1;fill-rule:nonzero;stroke:none;stroke-width:0.08680556"
         id="path34"
         inkscape:connector-curvature="0" /><path
         d="m 129.22396,121.75174 c 2.52604,-2.40365 4.9566,-5.02865 7.40886,-7.52951 -0.73698,-0.63889 -1.54514,-1.32726 -2.40365,-1.81511 l -5.34809,9.05122 0.34288,0.2934"
         style="fill:#edcb04;fill-opacity:1;fill-rule:nonzero;stroke:none;stroke-width:0.08680556"
         id="path36"
         inkscape:connector-curvature="0" /><path
         d="m 139.94271,108.74913 c 7.87761,3.19619 17.37153,1.29254 23.30903,-4.91579 4.04688,-4.306428 6.24045,-9.393233 6.41059,-15.348963 l 3.00955,-0.0017 c -0.099,7.777778 -3.26302,14.625003 -9.47136,19.605043 -6.84288,5.66666 -17.63888,6.74652 -25.68316,2.94444 -8.61284,-3.90191 -14.36458,-13.058163 -14.3151,-22.529518 l 3.0217,-8.68e-4 c 0.16146,8.736112 5.76302,17.202266 13.71875,20.247396"
         style="fill:#edcb04;fill-opacity:1;fill-rule:nonzero;stroke:none;stroke-width:0.08680556"
         id="path38"
         inkscape:connector-curvature="0" /><path
         d="m 148.18664,135 1.22656,-19.65017 h -2.99219 L 147.77084,135 h 0.4158"
         style="fill:#edcb04;fill-opacity:1;fill-rule:nonzero;stroke:none;stroke-width:0.08680556"
         id="path40"
         inkscape:connector-curvature="0" /><path
         d="m 163.00521,122.46441 c 0.19531,-0.0729 0.76042,-0.0495 0.49132,-0.41753 l -3.43489,-9.71528 -2.69705,1.30035 5.64062,8.83246"
         style="fill:#edcb04;fill-opacity:1;fill-rule:nonzero;stroke:none;stroke-width:0.08680556"
         id="path42"
         inkscape:connector-curvature="0" /><path
         d="m 182.43577,119.76476 0.29253,-0.29427 -14.64583,-13.37066 -1.88802,2.28125 16.24132,11.38368"
         style="fill:#edcb04;fill-opacity:1;fill-rule:nonzero;stroke:none;stroke-width:0.08680556"
         id="path44"
         inkscape:connector-curvature="0" /><path
         d="m 181.55209,104.79948 0.24479,-0.46528 -9.0026,-5.420135 c -0.3941,0.931424 -0.88282,1.814235 -1.17622,2.771705 l 9.93403,3.11371"
         style="fill:#edcb04;fill-opacity:1;fill-rule:nonzero;stroke:none;stroke-width:0.08680556"
         id="path46"
         inkscape:connector-curvature="0" /><path
         d="m 194.16233,94.324655 0.0486,-0.465278 -19.42882,-3.361111 c -0.24653,0.883681 -0.24653,1.986979 -0.34375,2.993924 l 19.72396,0.832465"
         style="fill:#edcb04;fill-opacity:1;fill-rule:nonzero;stroke:none;stroke-width:0.08680556"
         id="path48"
         inkscape:connector-curvature="0" /><path
         d="m 44.057553,67.763977 c 0,0 84.299217,32.114498 211.750617,0 0,0 -109.3889,14.049219 -211.750617,0"
         style="fill:#edcb04;fill-opacity:1;fill-rule:nonzero;stroke:none;stroke-width:0.08680556"
         id="path50"
         inkscape:connector-curvature="0" /><path
         d="M 51.105036,6.5989151 49.082814,7.612778 c -1.268577,0.6388368 -2.170486,1.2675174 -2.707292,1.8863542 -0.536458,0.6181428 -0.804948,1.3298608 -0.804948,2.1338538 0,1.206424 0.507899,2.187414 1.523177,2.941494 1.015886,0.753819 2.334549,1.13125 3.957726,1.13125 1.551302,0 2.974826,-0.360157 4.270486,-1.080035 v -2.490191 c -1.33941,1.062326 -2.780555,1.593663 -4.324045,1.593663 -0.86875,0 -1.582813,-0.165799 -2.14132,-0.496441 -0.558767,-0.331597 -0.837847,-0.757118 -0.837847,-1.274219 0,-0.458507 0.205469,-0.889757 0.616754,-1.290278 0.411632,-0.400086 1.073264,-0.8218746 1.98533,-1.2620656 L 52.6533,8.4140367 c 2.266493,-1.117283 3.399653,-2.5390626 3.399653,-4.2646616 0,-1.2301997 -0.498785,-2.227448 -1.496354,-2.9958074 C 53.559376,0.38553907 52.262415,0 50.665626,0 48.829862,0 47.158161,0.46522397 45.650609,1.3966841 v 2.7872743 c 1.436632,-1.5018056 3.099826,-2.250842 4.988542,-2.250842 0.833507,0 1.527604,0.1902257 2.081684,0.5730555 0.554687,0.383507 0.831076,0.8626303 0.831076,1.4373785 0,0.9341754 -0.815538,1.81783 -2.446875,2.6553647"
         style="fill:#1b458f;fill-opacity:1;fill-rule:nonzero;stroke:none;stroke-width:0.08680556"
         id="path52"
         inkscape:connector-curvature="0" /><path
         d="M 62.846182,15.529341 H 78.369794 V 13.574566 H 71.891321 V 0.17632379 H 69.218318 V 13.574566 h -6.372136 v 1.954775"
         style="fill:#1b458f;fill-opacity:1;fill-rule:nonzero;stroke:none;stroke-width:0.08680556"
         id="path54"
         inkscape:connector-curvature="0" /><path
         d="M 93.448787,6.6728387 90.450523,12.225 87.671009,6.6728387 Z m -3.908854,8.9226483 h 1.869792 L 99.74219,0.17632379 H 97.0191 L 94.542537,4.7197137 H 86.613631 L 84.291582,0.17632379 H 81.557901 L 89.539933,15.595487"
         style="fill:#1b458f;fill-opacity:1;fill-rule:nonzero;stroke:none;stroke-width:0.08680556"
         id="path56"
         inkscape:connector-curvature="0" /><path
         d="m 102.9158,15.529341 h 15.52431 v -1.954775 h -6.47917 V 0.17632379 H 109.2882 V 13.574566 h -6.3724 v 1.954775"
         style="fill:#1b458f;fill-opacity:1;fill-rule:nonzero;stroke:none;stroke-width:0.08680556"
         id="path58"
         inkscape:connector-curvature="0" /><path
         d="m 126.40365,15.507639 h 10.53472 v -1.953125 h -7.875 V 8.8785592 h 7.60938 V 6.9149481 h -7.60938 V 2.1511546 h 8.12761 V 0.19802518 H 126.40365 V 15.507639"
         style="fill:#1b458f;fill-opacity:1;fill-rule:nonzero;stroke:none;stroke-width:0.08680556"
         id="path60"
         inkscape:connector-curvature="0" /><path
         d="m 163.63976,6.9922571 h -2.48698 V 2.1294532 h 2.62066 c 1.45399,0 2.44097,0.094601 2.96007,0.279401 0.51736,0.1864931 0.9349,0.4774306 1.25,0.8731424 0.31424,0.3950347 0.47136,0.8185504 0.47136,1.2736025 0,0.467934 -0.1658,0.8948437 -0.49914,1.2830903 -0.33159,0.3879167 -0.80468,0.6768142 -1.4158,0.8670399 -0.61111,0.1902257 -1.57899,0.2865278 -2.90017,0.2865278 z m -0.19965,6.5622569 h -2.28733 V 8.9443579 h 1.76823 c 1.41927,0 2.42795,0.2241319 3.02604,0.6703993 0.59896,0.4452258 0.89931,1.0233508 0.89931,1.7340278 0,1.47066 -1.13629,2.205729 -3.40625,2.205729 z m 1.34375,-13.37819021 h -6.29254 V 15.507639 h 4.86893 c 1.53385,0 2.73177,-0.169878 3.59114,-0.510937 0.85938,-0.340452 1.5165,-0.809115 1.96875,-1.404514 0.45313,-0.596441 0.67882,-1.284809 0.67882,-2.06875 0,-1.506858 -0.94357,-2.5868926 -2.8342,-3.2369013 1.35677,-0.2119271 2.4375,-0.6737587 3.23958,-1.3821008 0.80296,-0.7107205 1.20313,-1.558776 1.20313,-2.5468663 0,-0.7829428 -0.24132,-1.482474 -0.73004,-2.0962154 -0.48871,-0.6147569 -1.20572,-1.1155903 -2.14756,-1.50350088 -0.94619,-0.38791234 -2.12848,-0.58152953 -3.54601,-0.58152953"
         style="fill:#1b458f;fill-opacity:1;fill-rule:nonzero;stroke:none;stroke-width:0.08680556"
         id="path62"
         inkscape:connector-curvature="0" /><path
         d="M 189.6658,6.6728387 186.66841,12.225 183.88629,6.6728387 Z m -3.90885,8.9226483 h 1.86979 l 8.33333,-15.41916321 h -2.72309 l -2.47829,4.54338991 h -7.92709 l -2.32205,-4.54338991 h -2.73437 l 7.98177,15.41916321"
         style="fill:#1b458f;fill-opacity:1;fill-rule:nonzero;stroke:none;stroke-width:0.08680556"
         id="path64"
         inkscape:connector-curvature="0" /><path
         d="m 218.20834,15.507639 h 2.52864 V 0.17632379 h -2.28732 L 206.02431,11.983594 V 0.17632379 h -2.50174 V 15.507639 h 2.15625 L 218.20834,3.5997223 V 15.507639"
         style="fill:#1b458f;fill-opacity:1;fill-rule:nonzero;stroke:none;stroke-width:0.08680556"
         id="path66"
         inkscape:connector-curvature="0" /><path
         d="m 240.67275,15.507639 h 3.32639 l -8.06163,-7.2756943 10.0434,-8.05562091 h -3.63108 L 232.8507,7.7490887 V 0.17632379 h -2.66059 V 15.507639 h 2.66059 V 8.4957554 l 7.82205,7.0118836"
         style="fill:#1b458f;fill-opacity:1;fill-rule:nonzero;stroke:none;stroke-width:0.08680556"
         id="path68"
         inkscape:connector-curvature="0" /></g></g></svg>